<?xml version="1.0" encoding="utf-8"?>
<!-- Generator: Adobe Illustrator 26.0.1, SVG Export Plug-In . SVG Version: 6.00 Build 0)  -->
<svg version="1.1" id="图层_1" xmlns="http://www.w3.org/2000/svg" xmlns:xlink="http://www.w3.org/1999/xlink" x="0px" y="0px"
	 viewBox="0 0 400 200" enable-background="new 0 0 400 200" xml:space="preserve">
<g>
	<rect x="19.77" y="115.74" fill="none" width="22.74" height="4.93"/>
</g>
<g>
	<path fill="#FBB03B" d="M229.43,155.6c0,12.83-7.55,26.61-19.78,26.61c-8.27,0-13.79-7.31-13.79-18.46c0-3.36,0.48-6.47,1.68-9.71
		c0.36-1.08,1.44-1.92,2.52-1.92c1.44,0,2.52,1.32,2.52,2.64c0,0.48-0.12,0.84-0.24,1.2c-0.72,1.8-1.08,5.16-1.08,7.67
		c0,6.23,2.52,13.55,8.63,13.55c8.63,0,14.15-11.39,14.15-21.58c0-4.79-1.92-11.27-7.67-11.27c-4.56,0-6.12,3.84-6.12,6.71
		c0,4.79,3.6,4.79,5.64,4.79c1.56,0,2.76,1.2,2.76,2.64c0,0.72-0.24,2.64-3.24,2.64c-6.95,0-10.55-4.56-10.55-10.07
		c0-5.75,4.08-11.75,11.75-11.75C224.52,139.3,229.43,146.01,229.43,155.6z"/>
	<path fill="#FBB03B" d="M249.45,182.21c-0.12,0-0.72-0.12-0.84-0.12c-6-0.96-8.87-5.87-8.87-15.1c0-5.75,0.72-12.47,3-21.58
		c-3.48,0-4.8,0.6-6.48,0.6c-0.84,0-1.68-0.72-1.68-2.04c0-3.36,5.04-3.48,9.35-3.6c0.96-3.96,2.4-9.47,3.72-14.27
		c0.36-1.08,1.32-1.8,2.4-1.92c1.56,0,2.76,0.96,2.76,2.4c0,0.48-0.12,1.08-0.24,1.32c-1.2,3.6-2.76,9.95-3.36,12.59
		c1.68,0,4.08,0.12,7.31,0.24c1.32,0.24,2.64,1.2,2.64,2.52c0,1.44-0.96,2.4-2.28,2.4c-2.28,0-6.36-0.24-8.63-0.36
		c-2.16,7.67-3.24,15.22-3.24,21.34c0,9.47,3.48,10.07,4.68,10.31c1.32,0,2.4,1.2,2.4,2.52
		C252.09,180.9,250.89,182.09,249.45,182.21z"/>
	<path fill="#FBB03B" d="M286.02,149.49c0-2.4-1.68-4.08-4.8-4.08c-6,0-14.51,7.67-14.51,20.5c0,4.08,1.32,11.39,9.95,11.39
		c3.12,0,6.36-1.44,8.39-3.96c0.48-0.6,1.08-0.96,1.92-0.96c1.44,0,2.4,1.2,2.4,2.76c0,2.28-5.75,7.07-13.07,7.07
		c-9.11,0-14.99-6.11-14.99-16.3c0-15.1,10.55-25.65,20.02-25.65c7.19,0,10.07,4.44,10.07,9.23c0,9.47-9.95,14.14-17.03,14.14
		c-1.44,0-2.64-0.96-2.64-2.52c0-1.32,1.08-2.52,2.64-2.64C280.03,158.36,286.02,154.88,286.02,149.49z"/>
	<path fill="#FBB03B" d="M307.96,167.23c0,2.04-1.68,2.4-2.4,2.28c-0.72-0.12-1.08-0.36-1.92-0.36c-2.28,0-2.88,1.8-2.88,3.48
		c0,2.88,3.48,5.75,7.79,5.75c4.32,0,8.87-2.52,8.87-7.91c0-2.88-1.44-6.23-6.83-9.11c-3.84-2.04-8.75-5.27-8.75-11.27
		c0-4.91,3.96-10.07,11.39-10.07c7.19,0,9.95,5.15,9.95,7.19c0,1.56-1.2,2.76-2.76,2.76c-0.72,0-1.92-0.6-2.16-1.56
		c-0.36-1.2-2.04-3.84-5.16-3.84c-3.84,0-6,2.4-6,5.51c0,2.28,1.08,3.72,5.88,6.59c5.88,3.48,9.83,6.95,9.83,13.07
		c0,7.43-5.28,12.95-14.39,12.95c-6.83,0-13.07-3.96-13.07-9.95c0-5.03,3.72-8.63,8.27-8.63
		C305.8,164.11,307.96,164.83,307.96,167.23z"/>
</g>
<g>
	<path fill="#FFAF55" d="M106.11,30.88l3.04,13.34c2.65,11.55,5.38,21.46,8.19,29.73l22.94,65.78l11.24-45.41
		c3.9-15.29,7.49-27.23,10.77-35.82c3.28-8.58,6.67-15.06,10.18-19.43c3.51-4.37,7.41-7.49,11.71-9.36
		c4.29-1.87,8.86-2.81,13.69-2.81c5.15,0,9.05,0.94,11.71,2.81c2.65,1.87,3.98,4.14,3.98,6.79c0,1.72-0.7,3.36-2.11,4.92
		c-1.4,1.56-3.2,2.34-5.38,2.34c-1.4,0-2.89-0.39-4.45-1.17c-4.37-2.03-8.27-3.04-11.71-3.04c-3.12,0-6.2,1.21-9.25,3.63
		c-3.04,2.42-6.44,8.47-10.18,18.14c-3.75,9.68-8.04,23.61-12.88,41.79c-4.84,18.18-9.6,37.73-14.28,58.64l-3.75,16.85
		c-13.27-29.03-23.88-56.1-31.84-81.23L95.34,57.8c-0.94,6.4-4.1,20.33-9.48,41.78c-5.38,21.46-9.4,36.17-12.06,44.13
		c-2.66,7.96-6.01,14.86-10.07,20.72c-4.06,5.85-8.58,10.07-13.58,12.64c-5,2.58-10.3,3.86-15.92,3.86
		c-5.93,0-11.16-1.33-15.68-3.98c-4.53-2.66-6.79-5.85-6.79-9.6c0-1.71,0.62-3.24,1.87-4.56c1.25-1.32,2.73-1.99,4.45-1.99
		c2.49,0,5.15,1.25,7.96,3.75c4.99,4.52,9.6,6.79,13.81,6.79c9.36,0,17.83-9.56,25.4-28.68c7.57-19.11,15.95-53.1,25.16-101.95
		c-33.24,3.12-49.86,14.36-49.86,33.71c0,5.15,1.32,9.68,3.98,13.58c1.87,2.81,2.81,5.07,2.81,6.79c0,1.56-0.74,3.01-2.22,4.33
		c-1.48,1.33-3.16,1.99-5.03,1.99c-2.97,0-5.46-1.6-7.49-4.8c-2.03-3.2-3.04-7.68-3.04-13.46c0-9.83,2.38-18.3,7.14-25.4
		c4.76-7.1,11-12.41,18.73-15.92c7.73-3.51,19.16-6.05,34.29-7.61C95.81,33.15,101.27,32.13,106.11,30.88z"/>
</g>
<g>
</g>
<g>
</g>
<g>
</g>
<g>
</g>
<g>
</g>
<g>
</g>
<g>
</g>
<g>
</g>
<g>
</g>
<g>
</g>
<g>
</g>
<g>
</g>
<g>
</g>
<g>
</g>
<g>
</g>
</svg>
